<?xml version="1.0" standalone="no"?>
<!DOCTYPE svg PUBLIC "-//W3C//DTD SVG 20010904//EN"
 "http://www.w3.org/TR/2001/REC-SVG-20010904/DTD/svg10.dtd">
<svg version="1.0" xmlns="http://www.w3.org/2000/svg"
 width="300.000000pt" height="300.000000pt" viewBox="0 0 300.000000 300.000000"
 preserveAspectRatio="xMidYMid meet">
<metadata>
Created by potrace 1.10, written by Peter Selinger 2001-2011
</metadata>
<g transform="translate(0.000000,300.000000) scale(0.100000,-0.100000)"
fill="#000000" stroke="none">
<path d="M1242 2486 c-23 -24 -63 -57 -89 -72 -57 -32 -104 -67 -152 -111 -20
-18 -38 -33 -41 -33 -3 0 -7 16 -8 36 -3 37 -24 88 -41 98 -21 14 -52 -30 -61
-88 -19 -117 -57 -194 -79 -158 -3 5 -15 12 -25 14 -15 2 -26 -10 -47 -51 -15
-30 -27 -57 -26 -60 3 -13 -26 -137 -35 -146 -6 -7 -13 -5 -21 6 -21 28 -52
40 -71 26 -22 -16 -22 -42 -1 -227 7 -57 27 -126 53 -176 12 -25 21 -70 25
-124 8 -108 10 -122 31 -195 10 -33 18 -61 17 -63 -4 -8 97 -194 128 -236 66
-89 229 -234 281 -251 11 -4 20 -11 20 -16 0 -5 3 -8 8 -7 4 1 29 -8 56 -20
50 -23 155 -56 211 -68 17 -3 77 -8 135 -11 148 -7 308 22 368 68 16 12 33 16
52 13 23 -5 31 -1 45 19 18 28 10 58 -22 75 -19 11 -9 32 16 32 42 0 69 71 40
106 -5 6 -7 14 -4 17 3 4 2 5 -1 2 -4 -2 -13 2 -21 10 -21 21 -61 18 -75 -5
-7 -11 -22 -20 -33 -20 -12 0 -30 -7 -41 -15 -10 -8 -25 -15 -33 -15 -8 0 -25
-10 -38 -21 -18 -18 -25 -20 -38 -9 -12 10 -18 10 -32 -1 -37 -29 -37 -36 -5
-109 20 -47 22 -57 8 -57 -6 0 -28 -3 -48 -7 -30 -5 -38 -3 -38 10 0 8 4 13 9
9 12 -7 19 17 23 73 3 49 -22 88 -50 77 -9 -4 -21 -7 -27 -7 -105 7 -159 16
-200 33 -119 51 -125 52 -149 32 -12 -10 -18 -14 -14 -9 4 5 0 23 -9 40 -10
17 -16 35 -15 39 1 5 -2 6 -7 2 -6 -3 -16 3 -23 15 -7 11 -17 20 -23 20 -22 0
-136 121 -142 150 -3 16 -11 35 -19 41 -7 6 -16 26 -20 44 -3 19 -13 40 -22
48 -22 18 -52 29 -52 17 0 -4 -13 -11 -29 -15 -32 -7 -60 -40 -55 -67 1 -10
12 -31 24 -48 12 -16 19 -30 15 -30 -13 0 62 -119 103 -164 23 -25 45 -46 47
-46 12 0 54 -44 49 -52 -3 -4 0 -8 6 -8 14 0 41 -26 35 -32 -3 -3 3 -6 13 -7
48 -6 74 -2 91 14 19 17 20 16 16 -29 -3 -42 -1 -47 20 -52 13 -3 30 -4 37 -2
7 3 21 -6 31 -18 12 -15 33 -25 65 -30 26 -3 52 -11 59 -16 15 -12 63 -18 63
-8 0 15 35 3 38 -13 3 -13 -4 -15 -33 -11 -21 2 -45 8 -54 13 -9 5 -22 6 -29
4 -26 -10 -214 63 -296 114 -40 25 -92 70 -153 130 -46 46 -70 78 -120 158
-21 33 -46 89 -46 103 0 6 -3 12 -7 12 -7 0 -33 86 -45 150 -11 59 -17 179
-11 213 7 37 78 117 84 96 15 -51 46 -98 70 -106 91 -29 164 10 223 121 39 73
50 74 56 6 5 -56 -10 -95 -36 -94 -12 1 -20 -1 -17 -4 3 -2 -4 -12 -16 -21
-26 -22 -17 -58 18 -71 40 -16 82 0 119 43 34 39 35 40 55 22 17 -15 24 -16
50 -5 29 12 34 20 31 48 -3 20 19 42 35 35 11 -4 14 -13 9 -30 -10 -41 50 -78
82 -51 12 9 15 9 9 1 -4 -7 -5 -13 -2 -13 3 0 12 12 19 28 11 22 12 47 2 140
-13 131 -27 157 -71 132 -14 -8 -38 -36 -53 -61 -41 -72 -102 -150 -112 -143
-5 3 -4 15 3 27 7 12 11 25 10 30 -1 4 2 7 7 7 4 0 6 12 3 26 -4 20 -2 25 8
19 8 -5 11 -4 6 3 -3 6 -2 13 3 17 6 3 19 18 30 33 16 23 17 30 6 45 -11 16
-15 16 -50 1 -36 -15 -41 -14 -88 5 -51 21 -87 27 -87 13 0 -4 -9 -13 -20 -20
-17 -10 -26 -10 -51 3 -17 9 -40 15 -52 15 -54 -5 -57 -2 -57 44 0 43 2 46 55
81 30 21 55 42 55 48 0 6 3 8 6 5 3 -3 22 12 43 34 24 26 47 41 66 43 17 2 50
6 75 8 38 5 173 57 146 57 -6 0 0 9 12 20 45 42 12 92 -45 69 -39 -16 -138
-23 -158 -11 -14 7 -4 14 51 37 71 28 78 30 154 46 67 15 267 15 330 0 30 -7
84 -24 120 -37 75 -27 220 -110 220 -124 0 -6 4 -9 8 -8 10 4 104 -89 154
-152 58 -72 118 -195 145 -299 32 -119 36 -311 9 -401 -9 -30 -18 -64 -21 -75
-3 -11 -15 -41 -28 -67 -13 -26 -20 -45 -16 -42 4 2 -1 -14 -12 -36 -11 -22
-24 -40 -29 -40 -5 0 -17 -11 -25 -24 -15 -23 -15 -27 0 -50 10 -14 26 -26 36
-26 22 0 61 40 55 55 -2 7 9 31 25 54 42 63 87 188 102 283 38 244 -11 473
-147 681 -39 61 -203 230 -215 222 -4 -2 -14 5 -21 16 -8 10 -18 19 -23 19 -5
0 -35 15 -66 34 -32 19 -69 37 -82 41 -13 4 -30 12 -37 18 -7 6 -23 12 -35 13
-12 1 -53 10 -92 20 -79 19 -289 23 -367 7 -63 -14 -74 -6 -54 42 21 50 20 72
-3 85 -30 15 -34 13 -79 -34z m68 15 c0 -21 -31 -93 -51 -121 -13 -17 -47 -47
-76 -67 -29 -20 -53 -38 -53 -39 0 -1 33 12 73 31 202 93 481 94 692 2 172
-75 334 -217 427 -374 125 -211 157 -480 86 -711 -28 -94 -76 -195 -87 -188
-6 4 5 37 24 79 120 253 103 576 -43 816 -140 230 -364 378 -633 418 -95 15
-124 15 -212 4 -157 -19 -342 -88 -428 -160 l-24 -20 35 9 c19 6 89 10 155 10
101 0 126 3 158 20 44 24 48 14 10 -22 -57 -52 -88 -61 -243 -68 -192 -9 -199
-12 -293 -137 -5 -7 20 7 56 31 64 43 192 94 204 82 9 -8 -41 -60 -97 -101
-25 -18 -82 -47 -126 -64 -45 -17 -88 -39 -96 -49 -15 -16 -58 -119 -73 -172
l-7 -25 18 25 c10 14 48 58 86 98 38 40 74 84 80 97 14 32 28 22 28 -18 0 -62
-45 -135 -140 -227 l-90 -87 0 -90 c0 -246 95 -471 271 -639 110 -104 215
-165 366 -211 79 -24 103 -26 243 -26 157 0 162 1 313 50 9 3 17 1 17 -5 0
-26 -210 -72 -328 -72 -303 0 -585 150 -747 395 -98 149 -143 282 -152 444 -4
80 -9 106 -34 157 -17 33 -34 89 -39 125 -17 113 -27 224 -23 232 6 10 47 -44
75 -98 12 -22 27 -65 34 -95 l12 -55 -5 85 c-3 56 0 117 11 177 17 98 52 203
67 203 6 0 8 -49 5 -121 -3 -89 -1 -118 8 -109 6 6 11 32 12 58 0 33 14 78 47
150 31 68 50 129 59 182 8 52 16 76 22 70 13 -13 14 -238 2 -265 -7 -15 -2
-13 22 8 16 16 33 44 36 62 11 59 58 107 179 185 78 51 122 86 134 108 17 30
33 42 33 23z m-121 -712 c38 -23 82 -20 113 8 10 9 21 13 25 9 4 -3 -10 -20
-30 -37 -46 -38 -76 -89 -52 -89 8 0 15 -4 15 -9 0 -5 -8 -8 -17 -7 -13 1 -22
-15 -35 -64 -24 -87 -46 -115 -89 -115 -27 0 -34 4 -34 20 0 11 7 20 15 20 8
0 14 -8 14 -17 -2 -25 13 -22 30 5 12 18 46 130 46 151 0 4 -11 4 -25 0 -15
-4 -25 -2 -25 5 0 6 12 11 28 11 19 0 36 11 59 39 l32 39 -47 5 c-26 2 -55 8
-64 12 -26 11 -35 -22 -12 -40 15 -12 16 -14 4 -15 -37 0 -52 46 -24 74 20 21
32 20 73 -5z m-149 -16 c18 -23 21 -36 16 -76 -14 -122 -133 -201 -201 -132
-43 42 -27 131 34 195 33 35 43 40 84 40 38 0 49 -5 67 -27z m418 -89 c5 -60
12 -116 15 -124 6 -12 -1 -15 -33 -15 -22 -1 -40 3 -40 7 0 4 7 8 15 8 11 0
15 11 15 40 l0 40 -42 0 c-38 0 -46 -4 -65 -35 -27 -41 -28 -45 -8 -45 8 0 15
-4 15 -9 0 -5 -16 -9 -35 -8 -19 1 -35 3 -35 5 0 2 13 20 29 40 16 20 47 63
71 95 23 32 44 56 47 53 3 -3 -6 -21 -21 -40 -14 -19 -26 -37 -26 -40 0 -3 16
-6 35 -6 19 0 35 3 35 8 -1 4 -5 27 -9 51 -7 35 -5 50 6 68 9 13 17 22 19 20
2 -2 8 -53 12 -113z m-538 -491 c0 -7 -11 -15 -25 -19 -14 -3 -25 -10 -25 -16
0 -5 -10 -8 -22 -6 -14 2 -27 15 -35 37 -13 30 -12 33 2 27 19 -7 75 19 76 37
1 14 28 -42 29 -60z m31 -97 c-7 -8 -19 -12 -27 -9 -16 6 -29 -20 -21 -41 5
-12 12 -12 53 0 26 8 49 12 52 9 3 -2 -7 -23 -22 -45 -14 -22 -26 -45 -26 -51
0 -8 -4 -8 -15 1 -8 7 -15 16 -15 21 0 5 7 9 15 9 20 0 19 19 -1 27 -9 3 -20
0 -25 -8 -7 -11 -10 -9 -15 9 -4 12 -10 22 -15 22 -13 0 -11 34 3 48 6 6 8 15
4 19 -4 5 -13 0 -20 -9 -11 -15 -13 -15 -23 2 -10 15 -8 19 17 24 16 3 37 14
47 24 17 18 18 18 32 -9 11 -22 12 -31 2 -43z m104 -95 c3 -6 1 -28 -4 -51 -9
-40 -9 -41 10 -24 10 9 19 23 19 31 0 9 17 0 45 -23 48 -39 56 -65 28 -96 -20
-22 -42 -23 -71 -2 l-22 15 25 27 c23 25 34 62 18 62 -4 0 -22 -14 -40 -32
-18 -17 -35 -29 -38 -26 -3 3 -1 24 4 47 9 41 9 42 -10 25 -10 -9 -19 -24 -19
-32 0 -12 -3 -12 -15 -2 -8 7 -15 17 -15 23 0 6 3 7 7 4 9 -9 64 44 57 55 -3
4 -1 8 5 8 5 0 12 -4 16 -9z m1250 -21 c0 -22 -39 -19 -43 3 -3 15 1 18 20 15
12 -2 23 -10 23 -18z m-326 -119 c26 -36 27 -57 2 -71 -16 -8 -24 -4 -45 21
-29 34 -32 49 -14 67 19 19 35 14 57 -17z m-709 -16 c31 -16 37 -29 20 -40 -5
-3 -10 1 -10 9 0 9 -7 16 -15 16 -8 0 -15 -7 -15 -15 0 -8 5 -15 10 -15 6 0
10 -5 10 -10 0 -6 -8 -10 -17 -8 -12 2 -18 -3 -17 -14 2 -20 -14 -23 -36 -7
-11 8 -12 12 -2 16 17 7 44 61 37 73 -9 14 1 12 35 -5z m624 -11 c19 -18 30
-59 21 -73 -11 -18 -43 -12 -59 11 -19 27 -20 50 -4 66 16 16 23 15 42 -4z
m-540 -24 c30 -11 33 -26 10 -51 -12 -14 -13 -22 -4 -38 7 -14 7 -21 0 -21 -6
0 -15 12 -20 26 -9 21 -7 29 7 40 14 10 15 15 6 25 -10 10 -14 6 -23 -15 -5
-15 -10 -36 -10 -46 0 -13 -5 -17 -19 -13 -18 4 -18 6 1 41 10 20 16 42 13 49
-5 16 5 16 39 3z m461 -20 c4 -16 11 -30 17 -30 6 0 8 -3 5 -7 -4 -3 -2 -12 4
-20 8 -8 8 -13 1 -13 -6 0 -18 -3 -26 -6 -12 -5 -15 -2 -10 11 6 14 3 16 -16
10 -22 -7 -22 -5 -15 31 11 64 29 74 40 24z m-86 -48 c1 -12 8 -25 16 -28 26
-10 16 -24 -17 -24 -22 0 -29 3 -22 10 6 6 9 24 6 40 -3 21 -8 27 -21 23 -13
-5 -12 -2 4 16 18 21 20 21 26 4 4 -10 8 -28 8 -41z m-261 36 c25 -25 5 -98
-26 -98 -17 0 -52 33 -52 48 0 45 50 78 78 50z m77 -28 c6 -29 25 -42 25 -18
0 6 2 9 5 6 8 -8 -5 -58 -15 -58 -5 0 -13 12 -18 28 l-10 27 -1 -32 c-1 -19
-6 -33 -13 -33 -9 0 -13 18 -13 55 0 45 3 55 17 55 10 0 19 -11 23 -30z m70
-25 c0 -42 -3 -55 -14 -53 -8 2 -14 20 -16 48 -2 50 1 60 18 60 8 0 12 -19 12
-55z m275 -23 c0 -11 -8 -18 -20 -19 -22 -2 -28 22 -7 30 22 9 27 7 27 -11z
m-85 -33 c-11 -4 -31 -8 -44 -8 l-24 -1 23 20 c18 16 26 17 43 8 21 -11 21
-11 2 -19z m155 16 c0 -21 -30 -31 -40 -14 -11 17 -3 29 21 29 10 0 19 -7 19
-15z m-405 -37 c21 3 35 0 35 -7 0 -6 -17 -11 -40 -11 -32 0 -40 4 -39 18 0 9
3 12 5 7 2 -6 20 -9 39 -7z"/>
<path d="M1161 2360 c-120 -80 -147 -103 -168 -145 l-15 -30 28 26 c16 15 61
47 100 72 79 50 140 100 155 128 5 11 8 19 7 19 -2 -1 -50 -32 -107 -70z"/>
<path d="M887 2247 c-3 -20 -24 -77 -47 -128 -22 -50 -43 -105 -46 -123 l-6
-31 25 30 c45 53 78 124 87 186 10 69 -2 131 -13 66z"/>
<path d="M1160 2170 c-106 -5 -154 -11 -177 -24 -35 -17 -46 -33 -15 -21 9 4
80 10 157 14 99 5 149 12 170 24 17 9 26 16 20 15 -5 -1 -75 -4 -155 -8z"/>
<path d="M715 2013 c-9 -38 -18 -108 -21 -158 l-4 -90 21 60 c19 55 40 255 27
255 -3 0 -13 -30 -23 -67z"/>
<path d="M958 2036 c-71 -36 -172 -105 -164 -113 9 -10 192 87 220 116 38 40
27 39 -56 -3z"/>
<path d="M584 1833 c3 -27 8 -75 12 -108 4 -33 16 -85 27 -115 l20 -55 9 30
c16 52 0 164 -32 233 -16 34 -32 62 -35 62 -4 0 -4 -21 -1 -47z"/>
<path d="M870 1874 c0 -6 -36 -49 -80 -97 -69 -75 -119 -152 -107 -164 2 -2
40 34 84 80 75 78 127 166 109 184 -3 3 -6 2 -6 -3z"/>
<path d="M939 1775 c-31 -17 -69 -99 -69 -149 0 -23 7 -43 20 -56 25 -25 31
-25 65 2 58 45 86 166 47 201 -22 20 -29 20 -63 2z m38 -82 c-5 -45 -33 -96
-52 -94 -26 1 -10 104 21 136 24 24 37 7 31 -42z"/>
<path d="M1111 881 c-26 -36 -26 -41 -3 -41 23 0 42 19 42 41 0 31 -18 30 -39
0z"/>
<path d="M1930 858 c1 -20 38 -64 47 -55 9 10 -17 59 -34 65 -7 2 -13 -2 -13
-10z"/>
<path d="M1860 813 c0 -24 26 -60 36 -50 10 10 -8 59 -23 65 -8 2 -13 -5 -13
-15z"/>
<path d="M1419 756 c-14 -31 -5 -59 18 -54 13 2 18 13 18 37 0 42 -21 52 -36
17z"/>
<path d="M1542 1807 c-21 -22 -30 -67 -14 -67 4 0 13 14 20 30 10 22 21 30 38
30 44 0 67 -94 49 -197 -5 -30 -4 -43 4 -43 6 0 11 -3 11 -7 0 -5 -23 -8 -50
-9 -50 0 -67 9 -31 19 41 10 54 169 17 206 -13 13 -16 11 -25 -12 -6 -15 -16
-27 -23 -28 -7 0 -2 -5 11 -10 21 -8 23 -14 19 -57 -3 -27 -12 -63 -21 -80
-15 -32 -15 -33 10 -49 15 -10 37 -19 49 -21 30 -3 64 30 64 64 0 41 21 118
36 130 8 6 10 14 6 19 -4 4 2 5 13 3 16 -3 20 -12 21 -43 1 -22 -2 -44 -5 -50
-4 -5 -13 -28 -20 -49 -13 -37 -12 -41 8 -57 18 -15 35 -17 104 -12 45 3 92 5
105 4 76 -5 113 -1 106 11 -9 15 23 8 36 -7 15 -18 50 -15 75 5 31 26 33 51 8
102 -26 52 -21 81 16 93 10 3 26 14 36 25 15 16 16 25 7 44 -15 33 -47 42 -79
21 -24 -16 -27 -16 -59 1 -29 16 -38 17 -69 5 -19 -7 -41 -9 -47 -4 -7 4 -64
8 -126 9 -107 2 -114 1 -142 -23 l-30 -25 -31 26 c-38 32 -69 33 -97 3z m226
-29 c-4 -27 -34 -32 -32 -6 2 26 -12 13 -51 -45 -19 -28 -35 -45 -35 -37 0 36
66 110 97 110 20 0 24 -5 21 -22z m192 10 c0 -25 -12 -58 -21 -58 -5 0 -8 10
-6 23 2 19 -3 22 -40 25 -42 3 -42 3 -53 -40 -7 -24 -14 -46 -17 -50 -2 -5 7
-8 20 -8 16 0 28 9 36 26 18 40 22 24 9 -34 -14 -55 -25 -66 -30 -30 -5 40
-35 34 -47 -9 -19 -66 -16 -73 29 -73 35 0 43 4 58 30 9 16 20 30 25 30 9 0 9
-1 -4 -38 -12 -34 -37 -42 -132 -38 -53 3 -96 16 -50 16 17 0 24 15 49 107 20
77 25 108 16 111 -7 2 -12 8 -12 13 0 5 38 9 85 9 61 0 85 -3 85 -12z m140 2
c0 -5 -9 -10 -19 -10 -15 0 -23 -16 -40 -77 -31 -117 -35 -143 -22 -143 6 0
11 -3 11 -7 0 -5 -20 -8 -45 -8 -25 0 -45 3 -45 8 0 4 7 7 15 7 14 0 18 11 52
141 14 56 15 73 6 76 -30 10 -9 23 37 23 28 0 50 -4 50 -10z m97 -5 c1 -5 -2
-17 -7 -25 -7 -12 -12 -12 -21 -3 -10 10 -16 4 -30 -27 -10 -22 -25 -43 -33
-46 -14 -5 -14 -8 -1 -21 9 -8 15 -33 15 -60 0 -39 2 -44 15 -33 8 7 15 19 15
26 0 8 4 14 9 14 14 0 1 -37 -21 -56 -32 -30 -52 -8 -56 60 -3 48 -6 56 -23
56 -11 0 -17 5 -14 10 4 6 10 8 15 5 17 -11 41 9 62 49 11 22 25 47 31 54 11
14 39 12 44 -3z m-237 -114 c-6 -23 -14 -41 -18 -41 -35 0 -33 77 2 82 29 5
29 5 16 -41z"/>
<path d="M826 1462 c-3 -3 -19 -6 -36 -7 -47 -4 -58 -26 -48 -98 11 -78 30
-101 78 -92 19 4 40 11 46 16 6 5 15 5 19 1 5 -4 5 -1 1 6 -4 6 -2 12 4 12 14
0 3 128 -12 146 -10 14 -44 24 -52 16z m44 -46 c0 -8 -11 -13 -27 -12 -16 0
-40 -3 -55 -7 -23 -6 -28 -4 -28 11 0 15 6 18 29 14 16 -2 37 1 47 6 21 12 34
7 34 -12z m-2 -73 c-3 -35 -5 -38 -30 -35 -18 2 -31 -4 -42 -20 l-16 -22 0 22
c0 12 7 25 15 28 8 4 15 10 15 15 0 14 -28 11 -32 -3 -3 -7 -7 -2 -10 10 -5
19 -2 22 25 22 18 0 39 5 47 10 26 17 31 11 28 -27z"/>
<path d="M2177 913 c-9 -3 -24 -17 -32 -32 -13 -26 -12 -30 10 -51 21 -20 29
-22 49 -12 37 16 43 50 15 77 -13 12 -32 20 -42 18z m33 -48 c0 -9 -7 -18 -16
-22 -18 -7 -39 11 -30 26 11 17 46 13 46 -4z"/>
<path d="M2028 793 c-17 -21 -17 -31 2 -60 18 -28 51 -30 73 -5 22 24 21 45
-1 65 -24 22 -55 22 -74 0z m62 -33 c0 -13 -7 -20 -20 -20 -13 0 -20 7 -20 20
0 13 7 20 20 20 13 0 20 -7 20 -20z"/>
</g>
</svg>
