<?xml version="1.0" encoding="UTF-8"?>
<svg xmlns="http://www.w3.org/2000/svg" xmlns:xlink="http://www.w3.org/1999/xlink" width="52px" height="52px" viewBox="0 0 52 52" version="1.1">
<g id="surface1">
<path style=" stroke:none;fill-rule:nonzero;fill:rgb(0%,0%,0%);fill-opacity:1;" d="M 21.527344 8.910156 C 21.128906 9.324219 20.4375 9.898438 19.984375 10.15625 C 18.996094 10.710938 18.183594 11.320312 17.351562 12.082031 C 17.003906 12.394531 16.691406 12.652344 16.640625 12.652344 C 16.589844 12.652344 16.519531 12.375 16.5 12.03125 C 16.449219 11.386719 16.085938 10.503906 15.789062 10.332031 C 15.425781 10.089844 14.890625 10.851562 14.734375 11.855469 C 14.402344 13.882812 13.746094 15.21875 13.363281 14.59375 C 13.3125 14.507812 13.105469 14.386719 12.929688 14.351562 C 12.671875 14.316406 12.480469 14.523438 12.117188 15.234375 C 11.855469 15.757812 11.648438 16.222656 11.664062 16.277344 C 11.71875 16.5 11.214844 18.652344 11.058594 18.808594 C 10.953125 18.929688 10.832031 18.894531 10.695312 18.703125 C 10.332031 18.21875 9.792969 18.007812 9.464844 18.253906 C 9.082031 18.53125 9.082031 18.980469 9.445312 22.1875 C 9.566406 23.175781 9.914062 24.371094 10.367188 25.238281 C 10.574219 25.671875 10.730469 26.449219 10.796875 27.386719 C 10.9375 29.257812 10.972656 29.5 11.335938 30.765625 C 11.507812 31.339844 11.648438 31.824219 11.628906 31.859375 C 11.5625 31.996094 13.3125 35.222656 13.847656 35.949219 C 14.992188 37.492188 17.820312 40.003906 18.71875 40.300781 C 18.910156 40.371094 19.066406 40.492188 19.066406 40.578125 C 19.066406 40.664062 19.117188 40.714844 19.207031 40.699219 C 19.273438 40.679688 19.707031 40.835938 20.175781 41.046875 C 21.042969 41.445312 22.863281 42.015625 23.832031 42.222656 C 24.128906 42.277344 25.167969 42.363281 26.171875 42.414062 C 28.738281 42.535156 31.511719 42.035156 32.550781 41.234375 C 32.828125 41.027344 33.125 40.957031 33.453125 41.011719 C 33.851562 41.097656 33.992188 41.027344 34.234375 40.679688 C 34.546875 40.195312 34.40625 39.675781 33.851562 39.382812 C 33.523438 39.191406 33.695312 38.828125 34.128906 38.828125 C 34.855469 38.828125 35.324219 37.597656 34.824219 36.988281 C 34.734375 36.886719 34.703125 36.746094 34.753906 36.695312 C 34.804688 36.625 34.789062 36.609375 34.734375 36.660156 C 34.667969 36.695312 34.511719 36.625 34.371094 36.488281 C 34.007812 36.121094 33.316406 36.175781 33.070312 36.574219 C 32.949219 36.765625 32.691406 36.921875 32.5 36.921875 C 32.292969 36.921875 31.980469 37.042969 31.789062 37.179688 C 31.617188 37.320312 31.355469 37.441406 31.21875 37.441406 C 31.078125 37.441406 30.785156 37.613281 30.558594 37.804688 C 30.246094 38.117188 30.125 38.152344 29.898438 37.960938 C 29.691406 37.785156 29.589844 37.785156 29.34375 37.976562 C 28.703125 38.480469 28.703125 38.601562 29.257812 39.867188 C 29.605469 40.679688 29.640625 40.855469 29.398438 40.855469 C 29.292969 40.855469 28.910156 40.90625 28.566406 40.976562 C 28.046875 41.0625 27.90625 41.027344 27.90625 40.800781 C 27.90625 40.664062 27.976562 40.578125 28.0625 40.648438 C 28.269531 40.769531 28.390625 40.351562 28.460938 39.382812 C 28.511719 38.53125 28.078125 37.855469 27.59375 38.046875 C 27.4375 38.117188 27.230469 38.167969 27.125 38.167969 C 25.308594 38.046875 24.371094 37.890625 23.660156 37.597656 C 21.597656 36.710938 21.492188 36.695312 21.078125 37.042969 C 20.871094 37.214844 20.765625 37.285156 20.835938 37.199219 C 20.902344 37.109375 20.835938 36.796875 20.679688 36.503906 C 20.503906 36.210938 20.402344 35.898438 20.417969 35.828125 C 20.4375 35.742188 20.382812 35.722656 20.296875 35.792969 C 20.191406 35.84375 20.019531 35.742188 19.898438 35.535156 C 19.777344 35.34375 19.605469 35.1875 19.5 35.1875 C 19.117188 35.1875 17.144531 33.089844 17.039062 32.585938 C 16.988281 32.308594 16.847656 31.980469 16.710938 31.875 C 16.589844 31.773438 16.433594 31.425781 16.363281 31.113281 C 16.3125 30.785156 16.136719 30.421875 15.980469 30.28125 C 15.601562 29.96875 15.078125 29.777344 15.078125 29.988281 C 15.078125 30.054688 14.855469 30.175781 14.578125 30.246094 C 14.023438 30.367188 13.539062 30.941406 13.625 31.40625 C 13.640625 31.582031 13.832031 31.945312 14.039062 32.238281 C 14.246094 32.515625 14.371094 32.761719 14.300781 32.761719 C 14.074219 32.761719 15.375 34.824219 16.085938 35.601562 C 16.484375 36.035156 16.867188 36.398438 16.898438 36.398438 C 17.109375 36.398438 17.835938 37.164062 17.75 37.300781 C 17.699219 37.371094 17.75 37.441406 17.851562 37.441406 C 18.097656 37.441406 18.5625 37.890625 18.460938 37.996094 C 18.40625 38.046875 18.511719 38.097656 18.683594 38.117188 C 19.515625 38.21875 19.96875 38.152344 20.261719 37.875 C 20.59375 37.578125 20.609375 37.597656 20.539062 38.375 C 20.488281 39.105469 20.523438 39.191406 20.886719 39.277344 C 21.113281 39.328125 21.40625 39.347656 21.527344 39.3125 C 21.648438 39.261719 21.890625 39.414062 22.066406 39.625 C 22.273438 39.882812 22.636719 40.058594 23.191406 40.144531 C 23.644531 40.195312 24.09375 40.335938 24.214844 40.421875 C 24.476562 40.628906 25.308594 40.734375 25.308594 40.558594 C 25.308594 40.300781 25.914062 40.507812 25.964844 40.785156 C 26.015625 41.011719 25.894531 41.046875 25.394531 40.976562 C 25.03125 40.941406 24.613281 40.835938 24.457031 40.75 C 24.300781 40.664062 24.074219 40.648438 23.953125 40.679688 C 23.503906 40.855469 20.246094 39.589844 18.824219 38.707031 C 18.128906 38.273438 17.230469 37.492188 16.171875 36.453125 C 15.375 35.65625 14.957031 35.101562 14.09375 33.714844 C 13.726562 33.140625 13.292969 32.171875 13.292969 31.929688 C 13.292969 31.824219 13.242188 31.71875 13.171875 31.71875 C 13.050781 31.71875 12.601562 30.230469 12.394531 29.121094 C 12.203125 28.097656 12.097656 26.015625 12.203125 25.429688 C 12.324219 24.785156 13.554688 23.398438 13.660156 23.765625 C 13.917969 24.648438 14.457031 25.460938 14.871094 25.601562 C 16.449219 26.105469 17.714844 25.429688 18.738281 23.503906 C 19.414062 22.238281 19.605469 22.222656 19.707031 23.398438 C 19.792969 24.371094 19.535156 25.046875 19.085938 25.03125 C 18.875 25.011719 18.738281 25.046875 18.789062 25.097656 C 18.839844 25.132812 18.71875 25.308594 18.511719 25.460938 C 18.0625 25.84375 18.21875 26.46875 18.824219 26.691406 C 19.515625 26.96875 20.246094 26.691406 20.886719 25.949219 C 21.476562 25.273438 21.492188 25.253906 21.839844 25.566406 C 22.132812 25.828125 22.257812 25.84375 22.707031 25.652344 C 23.210938 25.445312 23.296875 25.308594 23.242188 24.820312 C 23.191406 24.476562 23.574219 24.09375 23.851562 24.214844 C 24.042969 24.285156 24.09375 24.441406 24.007812 24.734375 C 23.832031 25.445312 24.875 26.085938 25.429688 25.617188 C 25.636719 25.460938 25.6875 25.460938 25.585938 25.601562 C 25.515625 25.722656 25.496094 25.828125 25.550781 25.828125 C 25.601562 25.828125 25.757812 25.617188 25.878906 25.339844 C 26.070312 24.960938 26.085938 24.527344 25.914062 22.914062 C 25.6875 20.644531 25.445312 20.191406 24.683594 20.625 C 24.441406 20.765625 24.023438 21.25 23.765625 21.683594 C 23.054688 22.933594 21.996094 24.285156 21.824219 24.164062 C 21.734375 24.109375 21.753906 23.902344 21.875 23.695312 C 21.996094 23.488281 22.066406 23.261719 22.046875 23.175781 C 22.03125 23.105469 22.082031 23.054688 22.167969 23.054688 C 22.238281 23.054688 22.273438 22.84375 22.222656 22.601562 C 22.152344 22.257812 22.1875 22.167969 22.359375 22.273438 C 22.5 22.359375 22.550781 22.34375 22.464844 22.222656 C 22.410156 22.117188 22.429688 21.996094 22.515625 21.925781 C 22.621094 21.875 22.84375 21.613281 23.035156 21.355469 C 23.3125 20.957031 23.332031 20.835938 23.140625 20.574219 C 22.949219 20.296875 22.878906 20.296875 22.273438 20.558594 C 21.648438 20.816406 21.5625 20.800781 20.746094 20.46875 C 19.863281 20.105469 19.238281 20.003906 19.238281 20.246094 C 19.238281 20.316406 19.085938 20.46875 18.894531 20.59375 C 18.597656 20.765625 18.441406 20.765625 18.007812 20.539062 C 17.714844 20.382812 17.316406 20.28125 17.109375 20.28125 C 16.171875 20.367188 16.121094 20.316406 16.121094 19.515625 C 16.121094 18.773438 16.15625 18.71875 17.074219 18.113281 C 17.59375 17.75 18.027344 17.386719 18.027344 17.28125 C 18.027344 17.175781 18.078125 17.144531 18.128906 17.195312 C 18.183594 17.246094 18.511719 16.988281 18.875 16.605469 C 19.292969 16.15625 19.691406 15.894531 20.019531 15.859375 C 20.316406 15.824219 20.886719 15.757812 21.320312 15.722656 C 21.980469 15.632812 24.320312 14.734375 23.851562 14.734375 C 23.746094 14.734375 23.851562 14.578125 24.058594 14.386719 C 24.839844 13.660156 24.265625 12.792969 23.277344 13.191406 C 22.601562 13.46875 20.886719 13.589844 20.539062 13.382812 C 20.296875 13.261719 20.46875 13.136719 21.425781 12.738281 C 22.65625 12.253906 22.777344 12.21875 24.09375 11.941406 C 25.253906 11.683594 28.722656 11.683594 29.8125 11.941406 C 30.332031 12.0625 31.269531 12.359375 31.894531 12.585938 C 33.191406 13.050781 35.707031 14.492188 35.707031 14.734375 C 35.707031 14.835938 35.777344 14.890625 35.84375 14.871094 C 36.019531 14.800781 37.648438 16.414062 38.515625 17.507812 C 39.519531 18.753906 40.558594 20.886719 41.027344 22.6875 C 41.582031 24.753906 41.652344 28.078125 41.183594 29.640625 C 41.027344 30.160156 40.871094 30.75 40.820312 30.941406 C 40.769531 31.128906 40.558594 31.652344 40.335938 32.101562 C 40.109375 32.550781 39.988281 32.882812 40.058594 32.828125 C 40.125 32.792969 40.039062 33.070312 39.847656 33.453125 C 39.660156 33.835938 39.433594 34.148438 39.347656 34.148438 C 39.261719 34.148438 39.050781 34.335938 38.914062 34.5625 C 38.652344 34.960938 38.652344 35.03125 38.914062 35.429688 C 39.085938 35.671875 39.363281 35.878906 39.539062 35.878906 C 39.917969 35.878906 40.59375 35.1875 40.492188 34.925781 C 40.457031 34.804688 40.648438 34.390625 40.925781 33.992188 C 41.652344 32.898438 42.433594 30.730469 42.691406 29.085938 C 43.351562 24.855469 42.5 20.886719 40.144531 17.28125 C 39.46875 16.222656 36.625 13.292969 36.417969 13.433594 C 36.347656 13.46875 36.175781 13.347656 36.054688 13.15625 C 35.914062 12.984375 35.742188 12.828125 35.65625 12.828125 C 35.566406 12.828125 35.046875 12.566406 34.511719 12.238281 C 33.957031 11.90625 33.316406 11.597656 33.089844 11.527344 C 32.863281 11.457031 32.570312 11.320312 32.449219 11.214844 C 32.328125 11.109375 32.050781 11.007812 31.839844 10.988281 C 31.632812 10.972656 30.921875 10.816406 30.246094 10.644531 C 28.878906 10.3125 25.238281 10.242188 23.886719 10.519531 C 22.792969 10.765625 22.601562 10.625 22.949219 9.792969 C 23.3125 8.925781 23.296875 8.546875 22.898438 8.320312 C 22.378906 8.058594 22.308594 8.09375 21.527344 8.910156 Z M 22.707031 8.648438 C 22.707031 9.011719 22.167969 10.261719 21.824219 10.746094 C 21.597656 11.042969 21.007812 11.5625 20.503906 11.90625 C 20.003906 12.253906 19.585938 12.566406 19.585938 12.585938 C 19.585938 12.601562 20.160156 12.375 20.851562 12.046875 C 24.351562 10.433594 29.1875 10.417969 32.847656 12.011719 C 35.828125 13.3125 38.636719 15.773438 40.246094 18.496094 C 42.414062 22.152344 42.96875 26.816406 41.738281 30.820312 C 41.253906 32.449219 40.421875 34.199219 40.230469 34.078125 C 40.125 34.007812 40.316406 33.4375 40.648438 32.707031 C 42.726562 28.324219 42.433594 22.722656 39.902344 18.5625 C 37.476562 14.578125 33.59375 12.011719 28.929688 11.320312 C 27.28125 11.058594 26.78125 11.058594 25.253906 11.25 C 22.535156 11.578125 19.328125 12.773438 17.835938 14.023438 L 17.421875 14.371094 L 18.027344 14.214844 C 18.355469 14.109375 19.570312 14.039062 20.714844 14.039062 C 22.464844 14.039062 22.898438 13.988281 23.453125 13.691406 C 24.214844 13.277344 24.285156 13.449219 23.625 14.074219 C 22.636719 14.976562 22.101562 15.132812 19.414062 15.253906 C 16.085938 15.410156 15.964844 15.460938 14.335938 17.628906 C 14.246094 17.75 14.679688 17.507812 15.304688 17.089844 C 16.414062 16.34375 18.632812 15.460938 18.839844 15.667969 C 18.996094 15.808594 18.128906 16.710938 17.160156 17.421875 C 16.726562 17.730469 15.738281 18.234375 14.976562 18.53125 C 14.195312 18.824219 13.449219 19.207031 13.3125 19.378906 C 13.050781 19.65625 12.308594 21.441406 12.046875 22.359375 L 11.925781 22.792969 L 12.238281 22.359375 C 12.410156 22.117188 13.070312 21.355469 13.726562 20.660156 C 14.386719 19.96875 15.011719 19.207031 15.113281 18.980469 C 15.355469 18.425781 15.601562 18.597656 15.601562 19.292969 C 15.601562 20.367188 14.820312 21.632812 13.171875 23.226562 L 11.613281 24.734375 L 11.613281 26.292969 C 11.613281 30.558594 13.261719 34.457031 16.3125 37.371094 C 18.21875 39.171875 20.039062 40.230469 22.65625 41.027344 C 24.023438 41.445312 24.441406 41.480469 26.867188 41.480469 C 29.589844 41.480469 29.675781 41.460938 32.292969 40.613281 C 32.449219 40.558594 32.585938 40.59375 32.585938 40.699219 C 32.585938 41.148438 28.945312 41.945312 26.902344 41.945312 C 21.648438 41.945312 16.761719 39.347656 13.953125 35.101562 C 12.253906 32.515625 11.476562 30.210938 11.320312 27.402344 C 11.25 26.015625 11.164062 25.566406 10.730469 24.683594 C 10.433594 24.109375 10.140625 23.140625 10.054688 22.515625 C 9.757812 20.558594 9.585938 18.632812 9.65625 18.496094 C 9.757812 18.320312 10.46875 19.257812 10.953125 20.191406 C 11.164062 20.574219 11.421875 21.320312 11.542969 21.839844 L 11.753906 22.792969 L 11.664062 21.320312 C 11.613281 20.347656 11.664062 19.292969 11.855469 18.253906 C 12.152344 16.554688 12.757812 14.734375 13.015625 14.734375 C 13.121094 14.734375 13.15625 15.582031 13.105469 16.832031 C 13.050781 18.375 13.085938 18.875 13.242188 18.71875 C 13.347656 18.617188 13.433594 18.164062 13.449219 17.714844 C 13.449219 17.144531 13.691406 16.363281 14.265625 15.113281 C 14.800781 13.9375 15.132812 12.878906 15.289062 11.960938 C 15.425781 11.058594 15.566406 10.644531 15.667969 10.746094 C 15.894531 10.972656 15.910156 14.871094 15.703125 15.339844 C 15.582031 15.601562 15.667969 15.566406 16.085938 15.203125 C 16.363281 14.925781 16.65625 14.4375 16.710938 14.125 C 16.898438 13.105469 17.714844 12.273438 19.8125 10.921875 C 21.164062 10.035156 21.925781 9.429688 22.132812 9.046875 C 22.429688 8.527344 22.707031 8.320312 22.707031 8.648438 Z M 20.609375 20.992188 C 21.269531 21.390625 22.03125 21.335938 22.566406 20.851562 C 22.742188 20.695312 22.933594 20.625 23 20.695312 C 23.070312 20.746094 22.828125 21.042969 22.480469 21.335938 C 21.683594 21.996094 21.164062 22.878906 21.578125 22.878906 C 21.71875 22.878906 21.839844 22.949219 21.839844 23.035156 C 21.839844 23.121094 21.703125 23.175781 21.546875 23.15625 C 21.320312 23.140625 21.164062 23.417969 20.9375 24.265625 C 20.523438 25.773438 20.140625 26.261719 19.394531 26.261719 C 18.929688 26.261719 18.808594 26.191406 18.808594 25.914062 C 18.808594 25.722656 18.929688 25.566406 19.066406 25.566406 C 19.207031 25.566406 19.308594 25.707031 19.308594 25.863281 C 19.273438 26.292969 19.535156 26.242188 19.828125 25.773438 C 20.039062 25.460938 20.625 23.519531 20.625 23.15625 C 20.625 23.089844 20.4375 23.089844 20.191406 23.15625 C 19.933594 23.226562 19.761719 23.191406 19.761719 23.070312 C 19.761719 22.964844 19.96875 22.878906 20.246094 22.878906 C 20.574219 22.878906 20.871094 22.6875 21.269531 22.203125 L 21.824219 21.527344 L 21.007812 21.441406 C 20.558594 21.40625 20.054688 21.300781 19.898438 21.234375 C 19.449219 21.042969 19.292969 21.613281 19.691406 21.925781 C 19.949219 22.132812 19.96875 22.167969 19.761719 22.1875 C 19.117188 22.1875 18.859375 21.390625 19.34375 20.902344 C 19.691406 20.539062 19.898438 20.558594 20.609375 20.992188 Z M 18.027344 21.269531 C 18.339844 21.667969 18.390625 21.890625 18.304688 22.585938 C 18.0625 24.699219 16 26.070312 14.820312 24.875 C 14.074219 24.144531 14.351562 22.601562 15.410156 21.492188 C 15.980469 20.886719 16.15625 20.800781 16.867188 20.800781 C 17.523438 20.800781 17.714844 20.886719 18.027344 21.269531 Z M 25.273438 22.8125 C 25.359375 23.851562 25.480469 24.820312 25.53125 24.960938 C 25.636719 25.167969 25.515625 25.21875 24.960938 25.21875 C 24.578125 25.238281 24.265625 25.167969 24.265625 25.097656 C 24.265625 25.03125 24.386719 24.960938 24.527344 24.960938 C 24.71875 24.960938 24.785156 24.769531 24.785156 24.265625 L 24.785156 23.574219 L 24.058594 23.574219 C 23.398438 23.574219 23.261719 23.644531 22.933594 24.179688 C 22.464844 24.890625 22.445312 24.960938 22.792969 24.960938 C 22.933594 24.960938 23.054688 25.03125 23.054688 25.117188 C 23.054688 25.203125 22.777344 25.273438 22.445312 25.253906 C 22.117188 25.238281 21.839844 25.203125 21.839844 25.167969 C 21.839844 25.132812 22.066406 24.820312 22.34375 24.476562 C 22.621094 24.128906 23.15625 23.382812 23.574219 22.828125 C 23.972656 22.273438 24.335938 21.855469 24.386719 21.910156 C 24.441406 21.960938 24.285156 22.273438 24.023438 22.601562 C 23.78125 22.933594 23.574219 23.242188 23.574219 23.296875 C 23.574219 23.347656 23.851562 23.398438 24.179688 23.398438 C 24.507812 23.398438 24.785156 23.347656 24.785156 23.261719 C 24.769531 23.191406 24.699219 22.792969 24.628906 22.378906 C 24.507812 21.769531 24.542969 21.511719 24.734375 21.199219 C 24.890625 20.972656 25.03125 20.816406 25.0625 20.851562 C 25.097656 20.886719 25.203125 21.769531 25.273438 22.8125 Z M 15.945312 31.320312 C 15.945312 31.441406 15.757812 31.582031 15.511719 31.652344 C 15.269531 31.703125 15.078125 31.824219 15.078125 31.929688 C 15.078125 32.015625 14.90625 32.066406 14.699219 32.03125 C 14.457031 31.996094 14.230469 31.773438 14.09375 31.390625 C 13.867188 30.871094 13.882812 30.820312 14.125 30.921875 C 14.457031 31.042969 15.425781 30.59375 15.445312 30.28125 C 15.460938 30.039062 15.929688 31.007812 15.945312 31.320312 Z M 16.484375 33.003906 C 16.363281 33.140625 16.15625 33.210938 16.015625 33.160156 C 15.738281 33.054688 15.511719 33.503906 15.652344 33.871094 C 15.738281 34.078125 15.859375 34.078125 16.570312 33.871094 C 17.019531 33.730469 17.421875 33.660156 17.472656 33.714844 C 17.523438 33.746094 17.351562 34.113281 17.089844 34.492188 C 16.847656 34.875 16.640625 35.273438 16.640625 35.378906 C 16.640625 35.515625 16.570312 35.515625 16.378906 35.359375 C 16.242188 35.238281 16.121094 35.082031 16.121094 34.996094 C 16.121094 34.910156 16.242188 34.839844 16.378906 34.839844 C 16.726562 34.839844 16.710938 34.511719 16.363281 34.371094 C 16.207031 34.320312 16.015625 34.371094 15.929688 34.511719 C 15.808594 34.703125 15.757812 34.667969 15.667969 34.355469 C 15.601562 34.148438 15.496094 33.972656 15.410156 33.972656 C 15.183594 33.972656 15.21875 33.382812 15.460938 33.140625 C 15.566406 33.039062 15.601562 32.882812 15.53125 32.8125 C 15.460938 32.726562 15.304688 32.8125 15.183594 32.96875 C 14.992188 33.226562 14.957031 33.226562 14.785156 32.933594 C 14.613281 32.671875 14.648438 32.605469 15.078125 32.515625 C 15.355469 32.464844 15.722656 32.273438 15.894531 32.101562 C 16.1875 31.789062 16.207031 31.789062 16.449219 32.257812 C 16.640625 32.636719 16.65625 32.792969 16.484375 33.003906 Z M 18.285156 34.648438 C 18.339844 34.753906 18.304688 35.132812 18.21875 35.535156 C 18.0625 36.226562 18.0625 36.242188 18.390625 35.949219 C 18.5625 35.792969 18.71875 35.550781 18.71875 35.410156 C 18.71875 35.257812 19.015625 35.410156 19.5 35.8125 C 20.332031 36.488281 20.46875 36.9375 19.984375 37.476562 C 19.636719 37.855469 19.257812 37.875 18.753906 37.507812 L 18.375 37.25 L 18.808594 36.78125 C 19.207031 36.347656 19.394531 35.707031 19.117188 35.707031 C 19.050781 35.707031 18.738281 35.949219 18.425781 36.261719 C 18.113281 36.554688 17.820312 36.765625 17.765625 36.710938 C 17.714844 36.660156 17.75 36.296875 17.835938 35.898438 C 17.992188 35.1875 17.992188 35.167969 17.664062 35.464844 C 17.488281 35.621094 17.332031 35.878906 17.332031 36.019531 C 17.332031 36.226562 17.28125 36.226562 17.074219 36.054688 C 16.933594 35.933594 16.8125 35.757812 16.8125 35.65625 C 16.8125 35.550781 16.867188 35.535156 16.933594 35.585938 C 17.089844 35.742188 18.042969 34.824219 17.921875 34.632812 C 17.871094 34.5625 17.90625 34.492188 18.007812 34.492188 C 18.097656 34.492188 18.21875 34.5625 18.285156 34.648438 Z M 39.953125 35.011719 C 39.953125 35.394531 39.277344 35.34375 39.207031 34.960938 C 39.15625 34.703125 39.226562 34.648438 39.554688 34.703125 C 39.761719 34.734375 39.953125 34.875 39.953125 35.011719 Z M 34.300781 37.074219 C 34.753906 37.699219 34.769531 38.0625 34.335938 38.308594 C 34.058594 38.445312 33.921875 38.375 33.558594 37.941406 C 33.054688 37.351562 33.003906 37.09375 33.316406 36.78125 C 33.644531 36.453125 33.921875 36.539062 34.300781 37.074219 Z M 22.011719 37.351562 C 22.550781 37.628906 22.65625 37.855469 22.359375 38.046875 C 22.273438 38.097656 22.1875 38.03125 22.1875 37.890625 C 22.1875 37.734375 22.066406 37.613281 21.925781 37.613281 C 21.789062 37.613281 21.667969 37.734375 21.667969 37.875 C 21.667969 38.011719 21.753906 38.132812 21.839844 38.132812 C 21.945312 38.132812 22.011719 38.21875 22.011719 38.308594 C 22.011719 38.410156 21.875 38.480469 21.71875 38.445312 C 21.511719 38.410156 21.40625 38.496094 21.425781 38.6875 C 21.457031 39.035156 21.179688 39.085938 20.800781 38.808594 C 20.609375 38.671875 20.59375 38.601562 20.765625 38.53125 C 21.058594 38.410156 21.527344 37.476562 21.40625 37.265625 C 21.25 37.023438 21.425781 37.058594 22.011719 37.351562 Z M 32.828125 37.542969 C 33.160156 37.855469 33.347656 38.566406 33.191406 38.808594 C 33.003906 39.121094 32.449219 39.015625 32.171875 38.617188 C 31.839844 38.152344 31.824219 37.753906 32.101562 37.476562 C 32.378906 37.199219 32.5 37.214844 32.828125 37.542969 Z M 23.46875 37.960938 C 23.988281 38.152344 24.042969 38.410156 23.644531 38.84375 C 23.433594 39.085938 23.417969 39.226562 23.574219 39.503906 C 23.695312 39.746094 23.695312 39.867188 23.574219 39.867188 C 23.46875 39.867188 23.3125 39.660156 23.226562 39.414062 C 23.070312 39.050781 23.105469 38.914062 23.347656 38.722656 C 23.589844 38.550781 23.609375 38.460938 23.453125 38.289062 C 23.277344 38.117188 23.210938 38.183594 23.054688 38.550781 C 22.964844 38.808594 22.878906 39.171875 22.878906 39.347656 C 22.878906 39.570312 22.792969 39.640625 22.550781 39.570312 C 22.238281 39.503906 22.238281 39.46875 22.566406 38.863281 C 22.742188 38.515625 22.84375 38.132812 22.792969 38.011719 C 22.707031 37.734375 22.878906 37.734375 23.46875 37.960938 Z M 31.460938 38.308594 C 31.53125 38.585938 31.652344 38.828125 31.753906 38.828125 C 31.859375 38.828125 31.894531 38.878906 31.839844 38.949219 C 31.773438 39 31.808594 39.15625 31.910156 39.292969 C 32.050781 39.433594 32.050781 39.519531 31.929688 39.519531 C 31.824219 39.519531 31.617188 39.570312 31.476562 39.625 C 31.269531 39.710938 31.21875 39.660156 31.304688 39.433594 C 31.40625 39.191406 31.355469 39.15625 31.027344 39.261719 C 30.644531 39.382812 30.644531 39.347656 30.765625 38.722656 C 30.957031 37.613281 31.269531 37.441406 31.460938 38.308594 Z M 29.96875 39.136719 C 29.988281 39.347656 30.109375 39.570312 30.246094 39.625 C 30.699219 39.796875 30.523438 40.039062 29.953125 40.039062 C 29.570312 40.039062 29.449219 39.988281 29.570312 39.867188 C 29.675781 39.761719 29.726562 39.449219 29.675781 39.171875 C 29.621094 38.808594 29.535156 38.707031 29.3125 38.773438 C 29.085938 38.863281 29.101562 38.808594 29.378906 38.496094 C 29.691406 38.132812 29.726562 38.132812 29.832031 38.429688 C 29.898438 38.601562 29.96875 38.914062 29.96875 39.136719 Z M 25.445312 38.515625 C 25.878906 38.949219 25.53125 40.214844 24.996094 40.214844 C 24.699219 40.214844 24.09375 39.640625 24.09375 39.382812 C 24.09375 38.601562 24.960938 38.03125 25.445312 38.515625 Z M 26.78125 39 C 26.882812 39.503906 27.214844 39.726562 27.214844 39.3125 C 27.214844 39.207031 27.246094 39.15625 27.300781 39.207031 C 27.4375 39.347656 27.214844 40.214844 27.039062 40.214844 C 26.953125 40.214844 26.816406 40.003906 26.726562 39.726562 L 26.554688 39.261719 L 26.539062 39.816406 C 26.519531 40.144531 26.433594 40.386719 26.3125 40.386719 C 26.15625 40.386719 26.085938 40.074219 26.085938 39.433594 C 26.085938 38.652344 26.136719 38.480469 26.382812 38.480469 C 26.554688 38.480469 26.710938 38.671875 26.78125 39 Z M 27.992188 39.433594 C 27.992188 40.160156 27.941406 40.386719 27.75 40.351562 C 27.613281 40.316406 27.507812 40.003906 27.472656 39.519531 C 27.4375 38.652344 27.492188 38.480469 27.785156 38.480469 C 27.925781 38.480469 27.992188 38.808594 27.992188 39.433594 Z M 32.761719 39.832031 C 32.761719 40.023438 32.621094 40.144531 32.414062 40.160156 C 32.03125 40.195312 31.929688 39.78125 32.292969 39.640625 C 32.671875 39.484375 32.761719 39.519531 32.761719 39.832031 Z M 31.285156 40.402344 C 31.097656 40.472656 30.75 40.542969 30.523438 40.542969 L 30.109375 40.558594 L 30.507812 40.214844 C 30.820312 39.9375 30.957031 39.917969 31.253906 40.074219 C 31.617188 40.265625 31.617188 40.265625 31.285156 40.402344 Z M 33.972656 40.125 C 33.972656 40.492188 33.453125 40.664062 33.28125 40.371094 C 33.089844 40.074219 33.226562 39.867188 33.644531 39.867188 C 33.816406 39.867188 33.972656 39.988281 33.972656 40.125 Z M 26.953125 40.769531 C 27.316406 40.714844 27.558594 40.769531 27.558594 40.890625 C 27.558594 40.992188 27.265625 41.078125 26.867188 41.078125 C 26.3125 41.078125 26.171875 41.011719 26.191406 40.769531 C 26.191406 40.613281 26.242188 40.558594 26.277344 40.648438 C 26.3125 40.75 26.625 40.800781 26.953125 40.769531 Z M 26.953125 40.769531 "/>
<path style=" stroke:none;fill-rule:nonzero;fill:rgb(0%,0%,0%);fill-opacity:1;" d="M 20.125 11.09375 C 18.042969 12.480469 17.574219 12.878906 17.210938 13.605469 L 16.953125 14.125 L 17.4375 13.675781 C 17.714844 13.414062 18.496094 12.863281 19.171875 12.429688 C 20.539062 11.5625 21.597656 10.695312 21.855469 10.210938 C 21.945312 10.019531 21.996094 9.878906 21.980469 9.878906 C 21.945312 9.898438 21.113281 10.433594 20.125 11.09375 Z M 20.125 11.09375 "/>
<path style=" stroke:none;fill-rule:nonzero;fill:rgb(0%,0%,0%);fill-opacity:1;" d="M 15.375 13.050781 C 15.324219 13.398438 14.957031 14.386719 14.558594 15.269531 C 14.179688 16.136719 13.816406 17.089844 13.761719 17.402344 L 13.660156 17.941406 L 14.09375 17.421875 C 14.871094 16.5 15.445312 15.269531 15.601562 14.195312 C 15.773438 13 15.566406 11.925781 15.375 13.050781 Z M 15.375 13.050781 "/>
<path style=" stroke:none;fill-rule:nonzero;fill:rgb(0%,0%,0%);fill-opacity:1;" d="M 20.105469 14.386719 C 18.269531 14.472656 17.4375 14.578125 17.039062 14.800781 C 16.433594 15.097656 16.242188 15.375 16.777344 15.167969 C 16.933594 15.097656 18.164062 14.992188 19.5 14.925781 C 21.214844 14.835938 22.082031 14.714844 22.445312 14.507812 C 22.742188 14.351562 22.898438 14.230469 22.792969 14.246094 C 22.707031 14.265625 21.492188 14.316406 20.105469 14.386719 Z M 20.105469 14.386719 "/>
<path style=" stroke:none;fill-rule:nonzero;fill:rgb(0%,0%,0%);fill-opacity:1;" d="M 12.394531 17.109375 C 12.238281 17.765625 12.082031 18.980469 12.03125 19.847656 L 11.960938 21.40625 L 12.324219 20.367188 C 12.652344 19.414062 13.015625 15.945312 12.792969 15.945312 C 12.738281 15.945312 12.566406 16.464844 12.394531 17.109375 Z M 12.394531 17.109375 "/>
<path style=" stroke:none;fill-rule:nonzero;fill:rgb(0%,0%,0%);fill-opacity:1;" d="M 16.605469 16.710938 C 15.375 17.332031 13.625 18.53125 13.761719 18.667969 C 13.917969 18.839844 17.089844 17.160156 17.574219 16.65625 C 18.234375 15.964844 18.042969 15.980469 16.605469 16.710938 Z M 16.605469 16.710938 "/>
<path style=" stroke:none;fill-rule:nonzero;fill:rgb(0%,0%,0%);fill-opacity:1;" d="M 10.121094 20.226562 C 10.175781 20.695312 10.261719 21.527344 10.332031 22.101562 C 10.398438 22.671875 10.609375 23.574219 10.796875 24.09375 L 11.144531 25.046875 L 11.300781 24.527344 C 11.578125 23.625 11.300781 21.683594 10.746094 20.488281 C 10.46875 19.898438 10.191406 19.414062 10.140625 19.414062 C 10.070312 19.414062 10.070312 19.777344 10.121094 20.226562 Z M 10.121094 20.226562 "/>
<path style=" stroke:none;fill-rule:nonzero;fill:rgb(0%,0%,0%);fill-opacity:1;" d="M 15.078125 19.515625 C 15.078125 19.621094 14.457031 20.367188 13.691406 21.199219 C 12.496094 22.5 11.628906 23.832031 11.839844 24.042969 C 11.875 24.074219 12.53125 23.453125 13.292969 22.65625 C 14.59375 21.300781 15.496094 19.777344 15.183594 19.464844 C 15.132812 19.414062 15.078125 19.429688 15.078125 19.515625 Z M 15.078125 19.515625 "/>
<path style=" stroke:none;fill-rule:nonzero;fill:rgb(0%,0%,0%);fill-opacity:1;" d="M 16.277344 21.234375 C 15.738281 21.527344 15.078125 22.949219 15.078125 23.816406 C 15.078125 24.214844 15.203125 24.5625 15.425781 24.785156 C 15.859375 25.21875 15.964844 25.21875 16.554688 24.753906 C 17.558594 23.972656 18.042969 21.875 17.367188 21.269531 C 16.988281 20.921875 16.867188 20.921875 16.277344 21.234375 Z M 16.933594 22.65625 C 16.847656 23.433594 16.363281 24.320312 16.035156 24.285156 C 15.582031 24.265625 15.859375 22.480469 16.398438 21.925781 C 16.8125 21.511719 17.039062 21.804688 16.933594 22.65625 Z M 16.933594 22.65625 "/>
<path style=" stroke:none;fill-rule:nonzero;fill:rgb(0%,0%,0%);fill-opacity:1;" d="M 19.257812 36.730469 C 18.808594 37.351562 18.808594 37.441406 19.207031 37.441406 C 19.605469 37.441406 19.933594 37.109375 19.933594 36.730469 C 19.933594 36.191406 19.621094 36.210938 19.257812 36.730469 Z M 19.257812 36.730469 "/>
<path style=" stroke:none;fill-rule:nonzero;fill:rgb(0%,0%,0%);fill-opacity:1;" d="M 33.453125 37.128906 C 33.46875 37.476562 34.113281 38.238281 34.269531 38.082031 C 34.425781 37.90625 33.972656 37.058594 33.679688 36.953125 C 33.558594 36.921875 33.453125 36.988281 33.453125 37.128906 Z M 33.453125 37.128906 "/>
<path style=" stroke:none;fill-rule:nonzero;fill:rgb(0%,0%,0%);fill-opacity:1;" d="M 32.238281 37.90625 C 32.238281 38.324219 32.691406 38.949219 32.863281 38.773438 C 33.039062 38.601562 32.726562 37.753906 32.464844 37.648438 C 32.328125 37.613281 32.238281 37.734375 32.238281 37.90625 Z M 32.238281 37.90625 "/>
<path style=" stroke:none;fill-rule:nonzero;fill:rgb(0%,0%,0%);fill-opacity:1;" d="M 24.597656 38.894531 C 24.351562 39.433594 24.507812 39.917969 24.90625 39.832031 C 25.132812 39.796875 25.21875 39.605469 25.21875 39.191406 C 25.21875 38.460938 24.855469 38.289062 24.597656 38.894531 Z M 24.597656 38.894531 "/>
<path style=" stroke:none;fill-rule:nonzero;fill:rgb(0%,0%,0%);fill-opacity:1;" d="M 26.726562 20.679688 C 26.363281 21.058594 26.207031 21.839844 26.484375 21.839844 C 26.554688 21.839844 26.710938 21.597656 26.832031 21.320312 C 27.003906 20.9375 27.195312 20.800781 27.492188 20.800781 C 28.253906 20.800781 28.652344 22.429688 28.339844 24.214844 C 28.253906 24.734375 28.269531 24.960938 28.410156 24.960938 C 28.511719 24.960938 28.601562 25.011719 28.601562 25.082031 C 28.601562 25.167969 28.203125 25.21875 27.734375 25.238281 C 26.867188 25.238281 26.570312 25.082031 27.195312 24.90625 C 27.90625 24.734375 28.132812 21.980469 27.492188 21.335938 C 27.265625 21.113281 27.214844 21.148438 27.058594 21.546875 C 26.953125 21.804688 26.78125 22.011719 26.660156 22.03125 C 26.539062 22.03125 26.625 22.117188 26.847656 22.203125 C 27.214844 22.34375 27.246094 22.445312 27.179688 23.191406 C 27.125 23.660156 26.96875 24.285156 26.816406 24.578125 C 26.554688 25.132812 26.554688 25.152344 26.988281 25.429688 C 27.246094 25.601562 27.628906 25.757812 27.835938 25.792969 C 28.355469 25.84375 28.945312 25.273438 28.945312 24.683594 C 28.945312 23.972656 29.3125 22.636719 29.570312 22.429688 C 29.710938 22.324219 29.742188 22.1875 29.675781 22.101562 C 29.605469 22.03125 29.710938 22.011719 29.898438 22.046875 C 30.175781 22.101562 30.246094 22.257812 30.265625 22.792969 C 30.28125 23.175781 30.230469 23.554688 30.175781 23.660156 C 30.109375 23.746094 29.953125 24.144531 29.832031 24.507812 C 29.605469 25.152344 29.621094 25.21875 29.96875 25.496094 C 30.28125 25.757812 30.574219 25.792969 31.773438 25.707031 C 32.550781 25.652344 33.367188 25.617188 33.59375 25.636719 C 34.910156 25.722656 35.550781 25.652344 35.429688 25.445312 C 35.273438 25.183594 35.828125 25.308594 36.054688 25.566406 C 36.3125 25.878906 36.921875 25.828125 37.351562 25.480469 C 37.890625 25.03125 37.925781 24.597656 37.492188 23.710938 C 37.042969 22.8125 37.128906 22.308594 37.769531 22.101562 C 37.941406 22.046875 38.21875 21.855469 38.394531 21.667969 C 38.652344 21.390625 38.671875 21.234375 38.515625 20.902344 C 38.253906 20.332031 37.699219 20.175781 37.144531 20.539062 C 36.730469 20.816406 36.675781 20.816406 36.121094 20.523438 C 35.621094 20.246094 35.464844 20.226562 34.925781 20.4375 C 34.597656 20.558594 34.214844 20.59375 34.113281 20.503906 C 33.992188 20.4375 33.003906 20.367188 31.929688 20.347656 C 30.074219 20.316406 29.953125 20.332031 29.464844 20.746094 L 28.945312 21.179688 L 28.410156 20.730469 C 27.75 20.175781 27.214844 20.160156 26.726562 20.679688 Z M 30.644531 21.179688 C 30.574219 21.648438 30.054688 21.734375 30.089844 21.285156 C 30.125 20.835938 29.882812 21.058594 29.207031 22.066406 C 28.878906 22.550781 28.601562 22.84375 28.601562 22.707031 C 28.601562 22.082031 29.742188 20.800781 30.28125 20.800781 C 30.628906 20.800781 30.699219 20.886719 30.644531 21.179688 Z M 33.972656 21.007812 C 33.972656 21.441406 33.765625 22.011719 33.609375 22.011719 C 33.523438 22.011719 33.46875 21.839844 33.503906 21.613281 C 33.539062 21.285156 33.453125 21.234375 32.8125 21.179688 C 32.085938 21.128906 32.085938 21.128906 31.894531 21.875 C 31.773438 22.289062 31.652344 22.671875 31.597656 22.742188 C 31.5625 22.828125 31.71875 22.878906 31.945312 22.878906 C 32.222656 22.878906 32.429688 22.722656 32.570312 22.429688 C 32.882812 21.734375 32.949219 22.011719 32.726562 23.019531 C 32.484375 23.972656 32.292969 24.164062 32.207031 23.539062 C 32.117188 22.84375 31.597656 22.949219 31.390625 23.695312 C 31.0625 24.839844 31.113281 24.960938 31.894531 24.960938 C 32.5 24.960938 32.636719 24.890625 32.898438 24.441406 C 33.054688 24.164062 33.246094 23.921875 33.332031 23.921875 C 33.488281 23.921875 33.488281 23.9375 33.261719 24.578125 C 33.054688 25.167969 32.621094 25.308594 30.976562 25.238281 C 30.054688 25.183594 29.3125 24.960938 30.109375 24.960938 C 30.402344 24.960938 30.523438 24.699219 30.957031 23.105469 C 31.304688 21.769531 31.390625 21.234375 31.234375 21.179688 C 31.113281 21.148438 31.027344 21.042969 31.027344 20.957031 C 31.027344 20.871094 31.683594 20.800781 32.5 20.800781 C 33.558594 20.800781 33.972656 20.851562 33.972656 21.007812 Z M 36.398438 20.972656 C 36.398438 21.058594 36.242188 21.148438 36.070312 21.148438 C 35.8125 21.148438 35.671875 21.425781 35.378906 22.480469 C 34.839844 24.507812 34.769531 24.960938 34.996094 24.960938 C 35.101562 24.960938 35.1875 25.011719 35.1875 25.082031 C 35.1875 25.167969 34.839844 25.21875 34.40625 25.21875 C 33.972656 25.21875 33.625 25.167969 33.625 25.082031 C 33.625 25.011719 33.746094 24.960938 33.886719 24.960938 C 34.128906 24.960938 34.199219 24.769531 34.789062 22.515625 C 35.03125 21.546875 35.046875 21.25 34.890625 21.199219 C 34.371094 21.023438 34.734375 20.800781 35.535156 20.800781 C 36.019531 20.800781 36.398438 20.871094 36.398438 20.972656 Z M 38.082031 21.058594 C 38.097656 21.148438 38.046875 21.355469 37.960938 21.492188 C 37.839844 21.703125 37.753906 21.703125 37.597656 21.546875 C 37.421875 21.371094 37.320312 21.476562 37.074219 22.011719 C 36.902344 22.394531 36.644531 22.757812 36.503906 22.8125 C 36.261719 22.898438 36.261719 22.949219 36.488281 23.175781 C 36.644531 23.3125 36.746094 23.746094 36.746094 24.214844 C 36.746094 24.890625 36.78125 24.976562 37.007812 24.785156 C 37.144531 24.664062 37.265625 24.457031 37.265625 24.335938 C 37.265625 24.199219 37.335938 24.09375 37.421875 24.09375 C 37.664062 24.09375 37.441406 24.734375 37.058594 25.0625 C 36.503906 25.585938 36.15625 25.203125 36.089844 24.023438 C 36.035156 23.191406 35.984375 23.054688 35.6875 23.054688 C 35.5 23.054688 35.394531 22.964844 35.445312 22.878906 C 35.515625 22.777344 35.621094 22.742188 35.707031 22.792969 C 36 22.984375 36.417969 22.636719 36.78125 21.945312 C 36.972656 21.5625 37.214844 21.128906 37.320312 21.007812 C 37.507812 20.765625 37.996094 20.800781 38.082031 21.058594 Z M 33.972656 23.035156 C 33.871094 23.433594 33.730469 23.746094 33.660156 23.746094 C 33.054688 23.746094 33.089844 22.410156 33.695312 22.324219 C 34.199219 22.238281 34.199219 22.238281 33.972656 23.035156 Z M 33.972656 23.035156 "/>
<path style=" stroke:none;fill-rule:nonzero;fill:rgb(0%,0%,0%);fill-opacity:1;" d="M 14.316406 26.660156 C 14.265625 26.710938 13.988281 26.761719 13.691406 26.78125 C 12.878906 26.847656 12.6875 27.230469 12.863281 28.480469 C 13.050781 29.832031 13.382812 30.230469 14.214844 30.074219 C 14.542969 30.003906 14.90625 29.882812 15.011719 29.796875 C 15.113281 29.710938 15.269531 29.710938 15.339844 29.777344 C 15.425781 29.847656 15.425781 29.796875 15.355469 29.675781 C 15.289062 29.570312 15.324219 29.464844 15.425781 29.464844 C 15.667969 29.464844 15.480469 27.246094 15.21875 26.9375 C 15.046875 26.691406 14.457031 26.519531 14.316406 26.660156 Z M 15.078125 27.457031 C 15.078125 27.59375 14.890625 27.679688 14.613281 27.664062 C 14.335938 27.664062 13.917969 27.714844 13.660156 27.785156 C 13.261719 27.890625 13.171875 27.855469 13.171875 27.59375 C 13.171875 27.335938 13.277344 27.28125 13.675781 27.351562 C 13.953125 27.386719 14.316406 27.335938 14.492188 27.246094 C 14.855469 27.039062 15.078125 27.125 15.078125 27.457031 Z M 15.046875 28.722656 C 14.992188 29.328125 14.957031 29.378906 14.523438 29.328125 C 14.214844 29.292969 13.988281 29.398438 13.796875 29.675781 L 13.519531 30.054688 L 13.519531 29.675781 C 13.519531 29.464844 13.640625 29.242188 13.78125 29.1875 C 13.917969 29.121094 14.039062 29.015625 14.039062 28.929688 C 14.039062 28.6875 13.554688 28.738281 13.484375 28.980469 C 13.433594 29.101562 13.363281 29.015625 13.3125 28.808594 C 13.226562 28.480469 13.277344 28.425781 13.746094 28.425781 C 14.058594 28.425781 14.421875 28.339844 14.558594 28.253906 C 15.011719 27.957031 15.097656 28.0625 15.046875 28.722656 Z M 15.046875 28.722656 "/>
<path style=" stroke:none;fill-rule:nonzero;fill:rgb(0%,0%,0%);fill-opacity:1;" d="M 37.734375 36.175781 C 37.578125 36.226562 37.320312 36.46875 37.179688 36.730469 C 36.953125 37.179688 36.972656 37.25 37.351562 37.613281 C 37.71875 37.960938 37.855469 37.996094 38.203125 37.820312 C 38.84375 37.542969 38.949219 36.953125 38.460938 36.488281 C 38.238281 36.277344 37.90625 36.140625 37.734375 36.175781 Z M 38.308594 37.007812 C 38.308594 37.164062 38.183594 37.320312 38.03125 37.386719 C 37.71875 37.507812 37.351562 37.199219 37.507812 36.9375 C 37.699219 36.644531 38.308594 36.710938 38.308594 37.007812 Z M 38.308594 37.007812 "/>
<path style=" stroke:none;fill-rule:nonzero;fill:rgb(0%,0%,0%);fill-opacity:1;" d="M 35.152344 38.253906 C 34.855469 38.617188 34.855469 38.792969 35.1875 39.292969 C 35.5 39.78125 36.070312 39.816406 36.453125 39.382812 C 36.832031 38.964844 36.816406 38.601562 36.433594 38.253906 C 36.019531 37.875 35.480469 37.875 35.152344 38.253906 Z M 36.226562 38.828125 C 36.226562 39.050781 36.105469 39.171875 35.878906 39.171875 C 35.65625 39.171875 35.535156 39.050781 35.535156 38.828125 C 35.535156 38.601562 35.65625 38.480469 35.878906 38.480469 C 36.105469 38.480469 36.226562 38.601562 36.226562 38.828125 Z M 36.226562 38.828125 "/>
</g>
</svg>
